<?xml version="1.0" standalone="no"?>
<!DOCTYPE svg PUBLIC "-//W3C//DTD SVG 20010904//EN"
 "http://www.w3.org/TR/2001/REC-SVG-20010904/DTD/svg10.dtd">
<svg version="1.0" xmlns="http://www.w3.org/2000/svg"
 width="245.000000pt" height="245.000000pt" viewBox="0 0 245.000000 245.000000"
 preserveAspectRatio="xMidYMid meet">
<metadata>
Created by potrace 1.14, written by Peter Selinger 2001-2017
</metadata>
<g transform="translate(0.000000,245.000000) scale(0.100000,-0.100000)"
fill="#000000" stroke="none">
<path d="M198 1735 c-78 -24 -112 -71 -114 -160 0 -36 3 -65 8 -65 5 0 7 -4 4
-9 -3 -4 10 -24 29 -42 50 -49 58 -54 83 -53 12 1 22 -2 22 -7 0 -4 25 1 57
12 45 15 59 17 71 6 16 -12 50 -11 67 3 8 7 12 176 6 296 -1 17 -7 20 -37 19
-19 0 -40 -7 -45 -15 -8 -11 -12 -12 -16 -2 -2 6 -9 10 -14 6 -5 -3 -9 0 -9 5
0 6 -3 10 -7 10 -5 -1 -10 0 -13 1 -17 6 -64 4 -92 -5z m92 -79 c0 4 11 -3 25
-16 14 -13 24 -29 21 -36 -2 -6 0 -16 5 -21 6 -6 6 -18 0 -34 -18 -42 -37 -58
-74 -63 -74 -9 -124 70 -86 134 20 32 75 54 97 37 6 -5 12 -6 12 -1z"/>
<path d="M640 1743 c-8 -3 -25 -10 -38 -16 -15 -7 -26 -8 -30 -1 -4 5 -24 10
-44 10 l-38 1 0 -164 c0 -107 3 -162 10 -158 6 3 10 1 10 -6 0 -9 3 -9 14 0
10 9 16 9 21 1 5 -7 11 -8 19 -1 8 7 11 41 11 103 -1 90 12 148 34 148 5 0 16
2 23 5 17 7 60 -28 57 -47 -1 -7 -1 -56 0 -109 1 -93 2 -96 24 -95 12 1 28 -2
35 -7 8 -6 12 -5 12 2 0 7 4 10 9 6 6 -3 8 18 7 50 -2 30 1 55 6 55 5 0 6 6 1
13 -10 17 -5 97 7 112 6 7 24 15 40 17 48 7 58 -13 59 -132 2 -76 6 -109 17
-120 8 -8 14 -10 14 -3 0 6 9 9 21 6 12 -3 24 -1 28 6 7 10 7 218 1 231 -1 3
-3 10 -4 15 -5 37 -70 82 -116 79 -35 -2 -90 -24 -90 -37 0 -6 -10 -1 -22 10
-23 21 -70 34 -98 26z"/>
<path d="M1138 1740 c-15 -5 -29 -5 -32 -2 -3 3 -6 0 -6 -6 0 -6 -8 -13 -19
-17 -16 -5 -80 -105 -67 -105 2 0 1 -13 -4 -30 -5 -19 -5 -30 1 -30 5 0 9 -6
8 -12 -6 -37 37 -95 91 -123 33 -17 112 -13 142 7 23 15 25 15 37 -4 7 -12 16
-17 20 -12 8 12 34 11 43 -1 10 -13 10 -12 11 168 1 89 -2 152 -8 157 -5 4
-21 7 -35 5 -14 -1 -31 -3 -38 -4 -7 0 -10 -5 -7 -11 3 -5 -1 -10 -9 -10 -9 0
-16 4 -16 9 0 18 -73 32 -112 21z m99 -92 c43 -21 51 -98 15 -137 -53 -57
-163 -11 -148 61 4 21 2 27 -6 22 -7 -4 -2 7 11 24 20 29 32 37 54 33 4 0 7 4
7 10 0 11 29 5 67 -13z"/>
<path d="M1796 1735 c-113 -39 -152 -165 -83 -267 16 -22 72 -59 87 -56 3 1
15 -4 28 -11 12 -6 22 -8 22 -3 0 5 10 8 23 7 30 -3 76 22 110 58 15 17 27 33
28 36 0 3 3 15 6 26 22 81 -8 155 -80 195 -47 27 -92 31 -141 15z m108 -90
c11 -8 16 -15 12 -15 -4 0 0 -7 8 -16 9 -8 14 -20 11 -25 -4 -5 -2 -9 4 -9 21
0 -18 -65 -49 -81 -44 -24 -109 -4 -110 34 0 5 -4 6 -8 3 -14 -9 -6 72 9 90
28 34 90 44 123 19z"/>
<path d="M1817 1620 c-16 -13 -27 -31 -27 -45 0 -26 34 -64 53 -61 32 6 57 19
58 29 1 7 3 22 4 34 2 25 -28 59 -44 49 -5 -3 -11 -1 -13 5 -2 6 -15 2 -31
-11z"/>
<path d="M2203 1739 c-18 -5 -33 -15 -33 -21 0 -6 -7 -4 -18 5 -18 16 -59 20
-77 6 -7 -5 -10 -66 -10 -161 1 -151 1 -153 23 -152 12 0 22 -3 22 -7 0 -5 10
-4 23 2 20 9 22 16 21 96 -1 113 3 131 35 147 31 16 56 13 80 -8 14 -13 17
-33 16 -113 -1 -104 2 -126 16 -117 5 3 9 1 9 -4 0 -5 7 -9 15 -9 8 0 15 4 15
8 0 5 7 6 15 3 10 -4 15 0 16 15 4 90 3 110 -2 139 -4 17 -3 32 1 32 10 0 3
45 -12 82 -22 48 -93 74 -155 57z"/>
<path d="M1424 1726 c-5 -6 -10 -23 -10 -38 -1 -30 -2 -29 76 -32 22 0 40 -4
40 -8 0 -5 0 -12 0 -18 0 -5 -8 -17 -18 -27 -34 -32 -114 -157 -103 -161 5 -2
8 -9 5 -17 -4 -10 5 -13 40 -11 25 1 46 -2 46 -7 0 -5 6 -5 13 2 10 8 17 7 25
-1 9 -9 12 -9 12 2 0 10 3 11 11 3 7 -7 20 -8 34 -3 12 4 28 5 35 0 21 -13 45
9 44 41 0 16 -4 32 -7 35 -3 3 -35 6 -71 6 -73 0 -74 5 -22 61 14 15 26 31 27
35 1 7 32 50 54 75 12 14 13 52 2 64 -13 12 -221 11 -233 -1z"/>
<path d="M2226 1361 c-3 -5 -17 -12 -31 -15 -62 -16 -102 -88 -90 -162 8 -56
42 -101 83 -113 43 -12 130 -5 146 12 10 9 20 17 24 17 4 0 13 12 20 27 21 45
13 121 -12 106 -18 -12 -36 -12 -36 -1 0 7 -5 6 -14 -1 -8 -7 -16 -8 -18 -3
-1 5 -17 5 -33 1 -38 -10 -45 -46 -12 -58 12 -5 27 -6 33 -4 7 2 15 0 19 -6 9
-15 -35 -30 -68 -24 -30 6 -42 18 -50 51 -7 28 11 84 24 76 5 -3 9 0 9 5 0 15
36 14 63 -1 12 -6 40 -12 63 -12 35 -1 40 2 36 18 -7 25 -47 67 -69 71 -10 2
-19 4 -20 5 -2 2 -11 3 -20 4 -10 1 -23 5 -30 9 -6 4 -14 3 -17 -2z"/>
<path d="M151 1351 c-19 -3 -36 -12 -39 -18 -2 -7 0 -13 5 -13 12 0 10 -53 -2
-62 -6 -5 -5 -11 3 -17 8 -4 14 -12 14 -16 0 -8 -22 -25 -34 -25 -9 0 2 63 14
78 8 9 7 11 -6 6 -9 -3 -16 -2 -16 4 0 6 5 12 12 14 6 2 8 10 4 17 -17 26 -33
-8 -31 -66 1 -41 -5 -68 -18 -90 -17 -30 -16 -38 6 -34 7 1 9 -4 10 -36 2 -28
27 -41 71 -37 22 3 42 7 45 10 3 3 6 24 6 46 0 40 1 41 36 42 77 4 106 29 114
101 3 25 -24 87 -35 80 -5 -3 -11 -2 -14 3 -3 4 -26 9 -52 11 -26 1 -50 3 -53
5 -3 1 -21 0 -40 -3z m117 -68 c32 -30 -2 -78 -51 -71 -18 2 -22 10 -23 38 0
19 1 38 3 42 5 11 56 4 71 -9z m-144 -121 c0 -21 -4 -44 -8 -50 -4 -7 -1 -12
6 -13 10 0 10 -2 0 -6 -6 -2 -10 -9 -6 -14 3 -5 1 -9 -5 -9 -5 0 -13 5 -16 10
-3 6 0 10 7 10 10 0 10 2 -1 9 -8 5 -9 11 -3 15 12 7 10 45 -3 65 -5 10 -4 12
3 7 7 -4 12 -2 12 3 0 6 3 11 8 11 4 0 7 -17 6 -38z"/>
<path d="M370 1350 c-5 -3 -9 -26 -9 -50 0 -25 0 -58 0 -75 0 -90 15 -127 66
-154 27 -14 100 -15 108 -1 4 6 10 8 14 5 10 -6 54 40 59 63 2 9 5 59 6 110 3
101 -2 109 -54 108 -25 -1 -25 -2 -28 -96 -3 -102 -16 -132 -53 -123 -25 7
-36 30 -34 71 1 17 -2 32 -8 32 -5 0 -6 5 -1 13 5 6 9 32 9 56 0 43 -1 44 -32
46 -18 1 -37 -1 -43 -5z"/>
<path d="M635 1341 c-3 -8 0 -18 7 -23 7 -4 8 -8 3 -8 -8 0 -13 -209 -6 -241
0 -3 22 -6 48 -8 26 -1 50 -4 55 -7 4 -3 8 -2 8 3 0 4 20 8 44 9 53 1 77 21
81 70 3 25 -2 41 -17 56 -18 18 -19 21 -3 38 11 12 15 31 13 56 -2 32 -9 42
-33 53 -42 21 -192 22 -200 2z m147 -60 c3 0 5 -9 4 -18 -4 -27 -62 -30 -69
-4 -6 25 13 32 65 22z m6 -110 c16 -10 16 -17 0 -35 -21 -23 -82 2 -71 30 6
15 50 19 71 5z"/>
<path d="M897 1346 c-2 -6 -3 -72 -3 -146 l1 -135 48 -5 c26 -3 47 -3 47 0 0
3 36 5 80 3 43 -1 82 2 85 6 7 12 8 48 2 84 -2 15 -1 27 3 27 6 0 6 34 0 50
-7 18 -3 86 4 92 19 13 -14 34 -51 33 l-38 -1 0 -121 c0 -105 -2 -120 -15
-113 -8 4 -28 7 -44 6 -37 -2 -42 14 -40 130 2 66 -1 94 -9 95 -7 1 -24 2 -39
3 -15 2 -29 -2 -31 -8z"/>
<path d="M1235 1351 c-11 -5 -28 -17 -37 -27 -20 -23 -33 -84 -18 -84 5 0 10
-6 10 -14 0 -8 9 -18 20 -21 11 -3 20 -11 20 -16 0 -5 3 -8 8 -8 21 4 42 -3
62 -19 19 -15 20 -20 8 -30 -11 -9 -20 -8 -39 6 -42 30 -114 18 -87 -15 6 -7
7 -13 3 -13 -21 0 48 -40 82 -48 31 -7 48 -5 81 10 43 21 57 45 53 88 -3 31
-44 69 -82 77 -15 3 -35 13 -44 23 -16 17 -15 19 5 30 13 7 20 8 16 2 -11 -18
70 -37 94 -22 18 11 -6 57 -37 73 -33 16 -90 20 -118 8z"/>
<path d="M1424 1344 c-2 -8 -6 -21 -9 -29 -2 -8 1 -15 7 -15 9 0 9 -3 1 -11
-8 -8 -8 -20 -3 -35 5 -13 6 -24 2 -24 -4 0 -7 -18 -7 -40 0 -22 3 -40 6 -40
4 0 3 -18 -1 -40 -7 -36 -5 -41 14 -45 25 -6 66 -3 67 5 0 3 2 28 2 55 l2 50
45 0 45 0 0 -45 c0 -25 5 -50 11 -57 14 -15 74 -14 75 1 4 49 3 276 -1 277 -3
1 -22 2 -42 3 -28 2 -38 -2 -41 -16 -3 -10 -1 -15 5 -12 7 4 7 0 0 -13 -6 -11
-7 -25 -1 -35 6 -11 4 -20 -6 -28 -12 -10 -15 -10 -15 1 0 9 -3 10 -8 4 -4 -6
-20 -10 -37 -10 -29 0 -30 2 -31 48 0 26 -4 50 -8 54 -13 14 -68 11 -72 -3z"/>
<path d="M1714 1349 c-4 -7 -8 -179 -5 -256 1 -32 3 -33 41 -33 l41 0 -3 147
-3 146 -33 2 c-18 1 -35 -2 -38 -6z"/>
<path d="M1822 1350 c-4 -3 -7 -12 -7 -20 1 -8 -4 -21 -9 -29 -7 -9 -7 -12 -1
-9 11 7 13 -177 2 -188 -3 -3 -1 -15 6 -25 26 -42 109 -9 86 33 -7 13 -6 18 3
18 8 0 9 3 3 8 -5 4 -11 21 -11 39 -1 23 2 30 12 26 8 -3 14 -9 14 -13 0 -5 6
-15 13 -22 6 -7 18 -25 26 -40 26 -50 49 -67 86 -66 19 1 36 4 36 7 7 24 4
281 -3 282 -4 1 -19 2 -33 2 -14 0 -29 -1 -34 -2 -6 0 -10 -27 -9 -58 1 -103
1 -103 -55 -18 -47 72 -55 80 -85 80 -18 1 -36 -2 -40 -5z"/>
<path d="M75 1339 c-11 -17 1 -21 15 -4 8 9 8 15 2 15 -6 0 -14 -5 -17 -11z"/>
<path d="M1223 942 c-66 -53 -3 -188 72 -154 14 6 25 8 25 4 0 -4 14 -7 31 -7
27 1 32 5 35 28 1 16 -2 27 -9 27 -8 0 -8 3 -2 8 6 4 11 16 11 27 0 11 -5 23
-11 27 -7 5 -6 8 1 8 6 0 10 10 9 23 -2 25 -37 36 -60 17 -9 -7 -15 -8 -20 0
-10 16 -58 12 -82 -8z m94 -70 c-2 -21 -8 -27 -27 -27 -20 0 -26 6 -28 29 -2
18 0 26 7 21 6 -3 11 -2 11 3 0 6 9 8 19 5 14 -4 19 -13 18 -31z"/>
<path d="M1416 935 c-23 -24 -28 -67 -13 -111 10 -30 63 -51 88 -36 25 16 28
15 25 -4 -3 -19 -26 -35 -39 -27 -5 3 -25 9 -43 13 -29 7 -34 5 -34 -10 0 -51
101 -78 150 -40 22 17 25 26 25 89 0 39 4 71 9 71 5 0 4 6 -2 13 -6 7 -7 18
-2 26 4 8 6 20 3 28 -6 15 -49 18 -58 3 -4 -7 -12 -7 -25 0 -31 16 -60 11 -84
-15z m88 -41 c19 -19 19 -24 1 -47 -13 -18 -14 -18 -34 2 -18 18 -19 24 -9 41
15 24 22 25 42 4z"/>
<path d="M1622 944 c-12 -8 -22 -22 -22 -30 0 -10 -5 -12 -12 -8 -10 6 -10 4
0 -8 9 -11 10 -18 2 -23 -7 -4 -7 -12 0 -26 6 -10 8 -19 4 -19 -4 0 5 -11 20
-24 31 -26 76 -29 114 -8 33 19 29 50 -5 46 -16 -1 -28 -3 -28 -4 0 -6 -36 -7
-40 0 -9 15 18 24 63 21 28 -2 48 2 52 10 5 7 7 -10 7 -37 -2 -46 -1 -49 23
-48 14 1 28 2 31 3 4 0 6 22 5 49 -3 61 1 71 26 67 30 -6 31 -10 31 -65 -1
-27 2 -51 6 -52 3 0 18 -2 32 -3 23 -2 26 2 24 26 -1 15 1 33 6 41 7 10 9 9 9
-4 0 -10 0 -21 -1 -24 0 -4 12 -15 28 -25 47 -32 123 -10 135 39 4 13 -2 17
-29 17 -18 0 -33 -3 -33 -7 0 -13 -38 -9 -43 5 -2 6 -1 22 4 35 7 19 12 21 28
12 11 -5 31 -9 46 -8 22 2 25 6 20 25 -7 30 11 30 21 1 4 -13 16 -43 27 -68
24 -54 28 -70 17 -70 -4 0 -11 -11 -14 -24 -3 -13 -8 -31 -11 -39 -4 -10 2
-14 25 -15 28 -1 33 4 55 53 14 30 25 59 25 64 0 6 4 11 10 11 5 0 7 7 4 15
-4 8 -1 15 5 15 6 0 11 9 11 19 0 11 4 21 8 23 5 2 12 15 16 31 6 25 4 27 -23
27 -39 0 -55 -23 -60 -84 -2 -16 -30 28 -31 47 0 9 -5 17 -11 17 -5 0 -7 5 -4
10 9 14 -58 13 -73 -2 -9 -9 -15 -9 -24 0 -21 21 -85 15 -108 -10 -11 -12 -20
-25 -20 -30 0 -4 -4 -8 -10 -8 -5 0 -10 6 -10 13 0 30 -34 45 -102 45 -38 0
-68 -5 -68 -10 0 -5 -5 -6 -11 -2 -7 4 -7 -1 1 -16 9 -17 9 -25 -1 -34 -9 -8
-10 -8 -5 2 4 6 2 12 -3 12 -6 0 -11 7 -11 15 0 8 -7 15 -15 15 -8 0 -15 5
-15 10 0 16 -73 12 -98 -6z m78 -46 c0 -4 -9 -8 -20 -8 -11 0 -20 4 -20 9 0 6
9 9 20 8 11 -1 20 -5 20 -9z"/>
<path d="M2340 837 c-23 -19 -21 -33 5 -47 19 -10 28 -10 39 -1 17 14 15 39
-5 52 -18 11 -21 11 -39 -4z"/>
</g>
</svg>
